<svg width="579" height="259" viewBox="0 0 579 259" fill="none" xmlns="http://www.w3.org/2000/svg">
<rect width="7.56126" height="1.89031" transform="matrix(0.713342 0.700816 -0.713342 0.700816 496.606 37.3762)" fill="#333333"/>
<path d="M498.93 30.7726C498.93 36.1533 494.486 40.5452 488.965 40.5452C483.445 40.5452 479 36.1533 479 30.7726C479 25.392 483.445 21 488.965 21C494.486 21 498.93 25.392 498.93 30.7726Z" stroke="#333333" stroke-width="2"/>
<rect width="7.56126" height="1.89031" transform="matrix(0.713342 0.700816 -0.713342 0.700816 496.606 143.376)" fill="#333333"/>
<path d="M498.93 136.773C498.93 142.153 494.486 146.545 488.965 146.545C483.445 146.545 479 142.153 479 136.773C479 131.392 483.445 127 488.965 127C494.486 127 498.93 131.392 498.93 136.773Z" stroke="#333333" stroke-width="2"/>
<path d="M474 122V120H472V122H474ZM506 122H508V120H506V122ZM506 154V156H508V154H506ZM474 154H472V156H474V154ZM474 124H506V120H474V124ZM504 122V154H508V122H504ZM506 152H474V156H506V152ZM476 154V122H472V154H476Z" fill="#FF9900"/>
<rect width="7.56126" height="1.89031" transform="matrix(0.713342 0.700816 -0.713342 0.700816 496.606 86.3762)" fill="#FF9900"/>
<path d="M498.93 79.7726C498.93 85.1533 494.486 89.5452 488.965 89.5452C483.445 89.5452 479 85.1533 479 79.7726C479 74.392 483.445 70 488.965 70C494.486 70 498.93 74.392 498.93 79.7726Z" stroke="#FF9900" stroke-width="2"/>
<g filter="url(#filter0_d)">
<path d="M20 195C20 186.163 27.1634 179 36 179H543C551.837 179 559 186.163 559 195V223C559 231.837 551.837 239 543 239H36C27.1634 239 20 231.837 20 223V195Z" fill="white"/>
</g>
<rect x="52" y="222" width="412" height="1" fill="#DCDCDC"/>
<path d="M63.286 199.4V212H61.504V207.014C60.172 207.53 58.942 207.788 57.814 207.788C56.278 207.788 55.084 207.416 54.232 206.672C53.392 205.928 52.972 204.866 52.972 203.486V199.4H54.736V203.288C54.736 204.224 55.018 204.944 55.582 205.448C56.158 205.952 56.968 206.204 58.012 206.204C59.176 206.204 60.34 205.94 61.504 205.412V199.4H63.286ZM74.0379 203.972H70.5459V212H68.8179V203.972H65.3259V202.46H74.0379V203.972ZM79.469 212.108C78.521 212.108 77.669 211.898 76.913 211.478C76.157 211.058 75.563 210.482 75.131 209.75C74.711 209.006 74.501 208.166 74.501 207.23C74.501 206.294 74.711 205.46 75.131 204.728C75.563 203.984 76.157 203.408 76.913 203C77.669 202.58 78.521 202.37 79.469 202.37C80.417 202.37 81.263 202.58 82.007 203C82.763 203.408 83.351 203.984 83.771 204.728C84.203 205.46 84.419 206.294 84.419 207.23C84.419 208.166 84.203 209.006 83.771 209.75C83.351 210.482 82.763 211.058 82.007 211.478C81.263 211.898 80.417 212.108 79.469 212.108ZM79.469 210.596C80.081 210.596 80.627 210.458 81.107 210.182C81.599 209.894 81.983 209.498 82.259 208.994C82.535 208.478 82.673 207.89 82.673 207.23C82.673 206.57 82.535 205.988 82.259 205.484C81.983 204.968 81.599 204.572 81.107 204.296C80.627 204.02 80.081 203.882 79.469 203.882C78.857 203.882 78.305 204.02 77.813 204.296C77.333 204.572 76.949 204.968 76.661 205.484C76.385 205.988 76.247 206.57 76.247 207.23C76.247 207.89 76.385 208.478 76.661 208.994C76.949 209.498 77.333 209.894 77.813 210.182C78.305 210.458 78.857 210.596 79.469 210.596ZM96.6082 202.784C97.4962 202.784 98.2882 202.982 98.9842 203.378C99.6802 203.774 100.22 204.326 100.604 205.034C101 205.73 101.198 206.528 101.198 207.428C101.198 208.352 100.988 209.174 100.568 209.894C100.16 210.602 99.5782 211.154 98.8222 211.55C98.0782 211.946 97.2262 212.144 96.2662 212.144C94.6462 212.144 93.3922 211.592 92.5042 210.488C91.6282 209.372 91.1902 207.806 91.1902 205.79C91.1902 203.834 91.5922 202.304 92.3962 201.2C93.2002 200.084 94.4302 199.346 96.0862 198.986L100.442 198.014L100.694 199.598L96.6802 200.462C95.4322 200.738 94.5022 201.206 93.8902 201.866C93.2782 202.526 92.9302 203.474 92.8462 204.71C93.2542 204.098 93.7822 203.624 94.4302 203.288C95.0782 202.952 95.8042 202.784 96.6082 202.784ZM96.3022 210.704C96.9142 210.704 97.4542 210.566 97.9222 210.29C98.4022 210.014 98.7742 209.636 99.0382 209.156C99.3022 208.664 99.4342 208.106 99.4342 207.482C99.4342 206.534 99.1462 205.772 98.5702 205.196C97.9942 204.62 97.2382 204.332 96.3022 204.332C95.3662 204.332 94.6042 204.62 94.0162 205.196C93.4402 205.772 93.1522 206.534 93.1522 207.482C93.1522 208.106 93.2842 208.664 93.5482 209.156C93.8242 209.636 94.2022 210.014 94.6822 210.29C95.1622 210.566 95.7022 210.704 96.3022 210.704ZM111.917 202.46L107.291 212.954C106.883 213.926 106.403 214.61 105.851 215.006C105.311 215.402 104.657 215.6 103.889 215.6C103.421 215.6 102.965 215.522 102.521 215.366C102.089 215.222 101.729 215.006 101.441 214.718L102.179 213.422C102.671 213.89 103.241 214.124 103.889 214.124C104.309 214.124 104.657 214.01 104.933 213.782C105.221 213.566 105.479 213.188 105.707 212.648L106.013 211.982L101.801 202.46H103.601L106.931 210.092L110.225 202.46H111.917ZM122.878 210.488V214.214H121.258V212H113.284V214.214H111.646V210.488H112.15C112.762 210.452 113.182 210.02 113.41 209.192C113.638 208.364 113.794 207.194 113.878 205.682L114.022 202.46H121.42V210.488H122.878ZM115.462 205.808C115.414 207.008 115.312 208.004 115.156 208.796C115.012 209.576 114.742 210.14 114.346 210.488H119.692V203.972H115.552L115.462 205.808ZM133.751 207.284C133.751 207.416 133.739 207.59 133.715 207.806H125.975C126.083 208.646 126.449 209.324 127.073 209.84C127.709 210.344 128.495 210.596 129.431 210.596C130.571 210.596 131.489 210.212 132.185 209.444L133.139 210.56C132.707 211.064 132.167 211.448 131.519 211.712C130.883 211.976 130.169 212.108 129.377 212.108C128.369 212.108 127.475 211.904 126.695 211.496C125.915 211.076 125.309 210.494 124.877 209.75C124.457 209.006 124.247 208.166 124.247 207.23C124.247 206.306 124.451 205.472 124.859 204.728C125.279 203.984 125.849 203.408 126.569 203C127.301 202.58 128.123 202.37 129.035 202.37C129.947 202.37 130.757 202.58 131.465 203C132.185 203.408 132.743 203.984 133.139 204.728C133.547 205.472 133.751 206.324 133.751 207.284ZM129.035 203.828C128.207 203.828 127.511 204.08 126.947 204.584C126.395 205.088 126.071 205.748 125.975 206.564H132.095C131.999 205.76 131.669 205.106 131.105 204.602C130.553 204.086 129.863 203.828 129.035 203.828ZM147.43 202.46V212H145.864V205.034L142.3 210.92H141.544L138.016 205.016V212H136.432V202.46H138.214L141.958 208.904L145.81 202.46H147.43ZM155.627 202.46H157.355V209.408L163.205 202.46H164.771V212H163.043V205.052L157.211 212H155.627V202.46ZM172.283 212.108C171.311 212.108 170.441 211.898 169.673 211.478C168.917 211.058 168.323 210.482 167.891 209.75C167.459 209.006 167.243 208.166 167.243 207.23C167.243 206.294 167.459 205.46 167.891 204.728C168.323 203.984 168.917 203.408 169.673 203C170.441 202.58 171.311 202.37 172.283 202.37C173.147 202.37 173.915 202.544 174.587 202.892C175.271 203.24 175.799 203.744 176.171 204.404L174.857 205.25C174.557 204.794 174.185 204.452 173.741 204.224C173.297 203.996 172.805 203.882 172.265 203.882C171.641 203.882 171.077 204.02 170.573 204.296C170.081 204.572 169.691 204.968 169.403 205.484C169.127 205.988 168.989 206.57 168.989 207.23C168.989 207.902 169.127 208.496 169.403 209.012C169.691 209.516 170.081 209.906 170.573 210.182C171.077 210.458 171.641 210.596 172.265 210.596C172.805 210.596 173.297 210.482 173.741 210.254C174.185 210.026 174.557 209.684 174.857 209.228L176.171 210.056C175.799 210.716 175.271 211.226 174.587 211.586C173.915 211.934 173.147 212.108 172.283 212.108ZM182.116 207.968H180.136V212H178.408V202.46H180.136V206.492H182.152L185.248 202.46H187.102L183.484 207.05L187.354 212H185.32L182.116 207.968ZM192.392 202.37C193.712 202.37 194.72 202.694 195.416 203.342C196.124 203.99 196.478 204.956 196.478 206.24V212H194.84V210.74C194.552 211.184 194.138 211.526 193.598 211.766C193.07 211.994 192.44 212.108 191.708 212.108C190.64 212.108 189.782 211.85 189.134 211.334C188.498 210.818 188.18 210.14 188.18 209.3C188.18 208.46 188.486 207.788 189.098 207.284C189.71 206.768 190.682 206.51 192.014 206.51H194.75V206.168C194.75 205.424 194.534 204.854 194.102 204.458C193.67 204.062 193.034 203.864 192.194 203.864C191.63 203.864 191.078 203.96 190.538 204.152C189.998 204.332 189.542 204.578 189.17 204.89L188.45 203.594C188.942 203.198 189.53 202.898 190.214 202.694C190.898 202.478 191.624 202.37 192.392 202.37ZM191.996 210.776C192.656 210.776 193.226 210.632 193.706 210.344C194.186 210.044 194.534 209.624 194.75 209.084V207.752H192.086C190.622 207.752 189.89 208.244 189.89 209.228C189.89 209.708 190.076 210.086 190.448 210.362C190.82 210.638 191.336 210.776 191.996 210.776ZM206.7 203.972H203.208V212H201.48V203.972H197.988V202.46H206.7V203.972ZM212.877 205.7C214.089 205.712 215.013 205.988 215.649 206.528C216.285 207.068 216.603 207.83 216.603 208.814C216.603 209.846 216.255 210.644 215.559 211.208C214.875 211.76 213.891 212.03 212.607 212.018L208.467 212V202.46H210.195V205.682L212.877 205.7ZM212.463 210.704C213.243 210.716 213.831 210.56 214.227 210.236C214.635 209.912 214.839 209.432 214.839 208.796C214.839 208.172 214.641 207.716 214.245 207.428C213.861 207.14 213.267 206.99 212.463 206.978L210.195 206.942V210.686L212.463 210.704ZM220.477 208.022C220.477 207.542 220.555 207.122 220.711 206.762C220.879 206.39 221.077 206.078 221.305 205.826C221.545 205.574 221.857 205.274 222.241 204.926C222.721 204.506 223.075 204.146 223.303 203.846C223.531 203.534 223.645 203.162 223.645 202.73C223.645 202.142 223.417 201.674 222.961 201.326C222.505 200.966 221.875 200.786 221.071 200.786C219.667 200.786 218.593 201.26 217.849 202.208L216.535 201.272C217.039 200.624 217.681 200.126 218.461 199.778C219.253 199.43 220.165 199.256 221.197 199.256C222.505 199.256 223.543 199.544 224.311 200.12C225.079 200.684 225.463 201.464 225.463 202.46C225.463 202.952 225.379 203.39 225.211 203.774C225.055 204.146 224.863 204.458 224.635 204.71C224.407 204.962 224.101 205.262 223.717 205.61C223.225 206.054 222.859 206.444 222.619 206.78C222.391 207.116 222.277 207.53 222.277 208.022H220.477ZM221.395 212.108C221.059 212.108 220.777 212 220.549 211.784C220.333 211.556 220.225 211.28 220.225 210.956C220.225 210.632 220.333 210.362 220.549 210.146C220.777 209.918 221.059 209.804 221.395 209.804C221.731 209.804 222.007 209.918 222.223 210.146C222.439 210.362 222.547 210.632 222.547 210.956C222.547 211.28 222.433 211.556 222.205 211.784C221.989 212 221.719 212.108 221.395 212.108Z" fill="#ADADAD"/>
<rect x="530.954" y="204.304" width="11.6645" height="2.33291" transform="rotate(45 530.954 204.304)" fill="#999999"/>
<rect x="529.304" y="212.552" width="11.6645" height="2.33291" transform="rotate(-45 529.304 212.552)" fill="#999999"/>
<circle cx="534" cy="209" r="11" stroke="#999999" stroke-width="2"/>
<rect width="7.56126" height="1.89031" transform="matrix(0.713342 0.700816 -0.713342 0.700816 496.606 214.376)" fill="#FF9900"/>
<path d="M498.93 207.773C498.93 213.153 494.486 217.545 488.965 217.545C483.445 217.545 479 213.153 479 207.773C479 202.392 483.445 198 488.965 198C494.486 198 498.93 202.392 498.93 207.773Z" stroke="#FF9900" stroke-width="2"/>
<rect x="0.5" y="0.5" width="578" height="258" rx="4.5" stroke="#7B61FF" stroke-dasharray="10 5"/>
<defs>
<filter id="filter0_d" x="0" y="159" width="579" height="100" filterUnits="userSpaceOnUse" color-interpolation-filters="sRGB">
<feFlood flood-opacity="0" result="BackgroundImageFix"/>
<feColorMatrix in="SourceAlpha" type="matrix" values="0 0 0 0 0 0 0 0 0 0 0 0 0 0 0 0 0 0 127 0"/>
<feOffset/>
<feGaussianBlur stdDeviation="10"/>
<feColorMatrix type="matrix" values="0 0 0 0 0 0 0 0 0 0 0 0 0 0 0 0 0 0 0.12 0"/>
<feBlend mode="normal" in2="BackgroundImageFix" result="effect1_dropShadow"/>
<feBlend mode="normal" in="SourceGraphic" in2="effect1_dropShadow" result="shape"/>
</filter>
</defs>
</svg>
